<?xml version="1.0" standalone="no"?>
<!DOCTYPE svg PUBLIC "-//W3C//DTD SVG 20010904//EN"
 "http://www.w3.org/TR/2001/REC-SVG-20010904/DTD/svg10.dtd">
<svg version="1.0" xmlns="http://www.w3.org/2000/svg"
 width="1000.000000pt" height="1000.000000pt" viewBox="0 0 1000.000000 1000.000000"
 preserveAspectRatio="xMidYMid meet">
<metadata>
Created by potrace 1.14, written by Peter Selinger 2001-2017
</metadata>
<g transform="translate(0.000000,1000.000000) scale(0.100000,-0.100000)"
fill="#000000" stroke="none">
<path d="M1018 8678 c-2 -7 -3 -1606 -3 -3553 l1 -3540 729 0 730 0 1 3540 c0
1947 -2 3546 -4 3553 -3 9 -158 12 -727 12 -570 0 -724 -3 -727 -12z"/>
<path d="M3849 8658 c0 -42 0 -6162 0 -6686 l1 -393 1248 4 c686 2 1265 7
1287 10 22 3 67 9 100 12 206 20 524 92 732 166 153 54 341 138 473 212 58 33
114 65 125 71 131 73 386 276 525 416 124 125 163 170 263 300 31 41 61 80 65
85 87 113 245 402 327 595 108 256 210 611 240 840 3 25 8 52 10 60 2 8 7 44
10 80 4 36 9 79 11 95 26 201 26 1018 -1 1225 -2 19 -7 58 -10 85 -3 28 -10
77 -15 110 -5 33 -12 77 -16 99 -3 21 -7 46 -9 55 -2 9 -11 49 -19 89 -25 117
-89 340 -121 422 -174 448 -314 698 -559 995 -60 72 -293 306 -354 355 -24 19
-52 42 -62 51 -10 8 -31 24 -46 35 -14 10 -38 28 -53 40 -41 32 -189 128 -266
172 -329 189 -776 344 -1115 388 -19 2 -42 6 -50 9 -8 2 -49 7 -90 10 -41 4
-88 10 -105 13 -16 3 -591 7 -1277 9 l-1248 4 -1 -33z m2353 -1122 c67 -4 124
-9 128 -11 3 -1 28 -6 55 -9 70 -10 227 -50 313 -81 664 -240 1038 -875 1098
-1865 16 -270 4 -928 -20 -1093 -3 -23 -8 -62 -11 -87 -2 -25 -16 -102 -30
-170 -130 -646 -422 -1088 -868 -1315 -129 -65 -289 -121 -407 -141 -14 -3
-50 -9 -80 -15 -113 -20 -205 -23 -630 -24 l-435 0 -1 2407 c-1 2157 0 2407
14 2410 30 6 753 1 874 -6z"/>
</g>
</svg>
